<svg width="163" height="63" viewBox="0 0 163 63" fill="none" xmlns="http://www.w3.org/2000/svg">
<g filter="url(#filter0_di_239_5)">
<circle cx="131.688" cy="27.696" r="12" fill="#5FD3BD"/>
</g>
<rect x="129.079" y="20.9136" width="5.21739" height="13.5652" rx="0.782609" fill="white"/>
<rect x="138.471" y="25.0874" width="5.21739" height="13.5652" rx="0.782609" transform="rotate(90 138.471 25.0874)" fill="white"/>
<path d="M101.962 55.6958V38.1598H106.026V45.6798H105.93C105.93 43.2051 106.452 41.2958 107.498 39.9518C108.564 38.6078 110.1 37.9358 112.106 37.9358H112.778V42.3518H111.498C110.09 42.3518 109.002 42.7358 108.234 43.5038C107.466 44.2505 107.082 45.3385 107.082 46.7678V55.6958H101.962Z" fill="url(#paint0_linear_239_5)"/>
<path d="M88.7243 56.3038C87.1883 56.3038 85.8229 56.0691 84.6283 55.5998C83.4336 55.1091 82.4203 54.4478 81.5883 53.6158C80.7776 52.7838 80.1589 51.8344 79.7323 50.7678C79.3056 49.6798 79.0923 48.5384 79.0923 47.3438V46.6078C79.0923 45.3918 79.3056 44.2398 79.7323 43.1518C80.1803 42.0424 80.8203 41.0718 81.6523 40.2398C82.5056 39.4078 83.5296 38.7571 84.7243 38.2878C85.9189 37.7971 87.2523 37.5518 88.7243 37.5518C90.2389 37.5518 91.5829 37.7971 92.7563 38.2878C93.9509 38.7571 94.9643 39.4078 95.7963 40.2398C96.6283 41.0718 97.2683 42.0424 97.7163 43.1518C98.1643 44.2398 98.3883 45.3918 98.3883 46.6078V47.3438C98.3883 48.5384 98.1749 49.6798 97.7483 50.7678C97.3216 51.8344 96.6923 52.7838 95.8603 53.6158C95.0496 54.4478 94.0469 55.1091 92.8523 55.5998C91.6576 56.0691 90.2816 56.3038 88.7243 56.3038ZM88.7243 51.9838C89.7269 51.9838 90.5589 51.7704 91.2203 51.3438C91.8816 50.9171 92.3829 50.3198 92.7243 49.5518C93.0869 48.7838 93.2683 47.9304 93.2683 46.9918C93.2683 45.9891 93.0869 45.1144 92.7243 44.3678C92.3616 43.5998 91.8389 42.9918 91.1562 42.5438C90.4949 42.0958 89.6843 41.8718 88.7243 41.8718C87.7856 41.8718 86.9749 42.0958 86.2923 42.5438C85.6096 42.9918 85.0869 43.5998 84.7243 44.3678C84.3829 45.1144 84.2123 45.9891 84.2123 46.9918C84.2123 47.9304 84.3829 48.7838 84.7243 49.5518C85.0656 50.3198 85.5776 50.9171 86.2603 51.3438C86.9429 51.7704 87.7643 51.9838 88.7243 51.9838Z" fill="url(#paint1_linear_239_5)"/>
<path d="M74.3358 55.9198C72.5651 55.9198 71.1358 55.7065 70.0478 55.2798C68.9598 54.8318 68.1598 54.0958 67.6478 53.0718C67.1571 52.0265 66.9118 50.6185 66.9118 48.8478V33.4238H71.6798V49.0398C71.6798 49.8718 71.8931 50.5118 72.3198 50.9598C72.7678 51.3865 73.3971 51.5998 74.2078 51.5998H76.7998V55.9198H74.3358ZM64.2558 41.9038V38.1598H76.7998V41.9038H64.2558Z" fill="url(#paint2_linear_239_5)"/>
<path d="M54.6773 56.3038C53.1626 56.3038 51.8399 56.0584 50.7093 55.5678C49.5999 55.0558 48.6719 54.3731 47.9253 53.5198C47.1786 52.6664 46.6239 51.7064 46.2613 50.6398C45.8986 49.5518 45.7173 48.4318 45.7173 47.2798V46.6718C45.7173 45.4771 45.9093 44.3358 46.2933 43.2478C46.6773 42.1384 47.2426 41.1571 47.9893 40.3038C48.7359 39.4504 49.6639 38.7784 50.7733 38.2878C51.9039 37.7971 53.1946 37.5518 54.6453 37.5518C56.2239 37.5518 57.6213 37.8611 58.8373 38.4798C60.0533 39.0771 61.0239 39.9198 61.7493 41.0078C62.4746 42.0958 62.8799 43.3438 62.9653 44.7518H57.9413C57.8559 43.9624 57.5359 43.3011 56.9813 42.7678C56.4479 42.2131 55.6693 41.9358 54.6453 41.9358C53.7919 41.9358 53.0773 42.1491 52.5013 42.5758C51.9466 43.0024 51.5306 43.5891 51.2533 44.3358C50.9759 45.0824 50.8373 45.9678 50.8373 46.9918C50.8373 47.9304 50.9653 48.7838 51.2213 49.5518C51.4773 50.2984 51.8826 50.8851 52.4373 51.3118C53.0133 51.7171 53.7599 51.9198 54.6773 51.9198C55.3599 51.9198 55.9359 51.8024 56.4053 51.5678C56.8959 51.3118 57.2799 50.9704 57.5573 50.5438C57.8559 50.0958 58.0373 49.5838 58.1013 49.0078H63.0933C63.0293 50.4584 62.6239 51.7384 61.8773 52.8478C61.1306 53.9358 60.1386 54.7891 58.9013 55.4078C57.6639 56.0051 56.2559 56.3038 54.6773 56.3038Z" fill="url(#paint3_linear_239_5)"/>
<path d="M33.568 56.3038C32.032 56.3038 30.6667 56.0691 29.472 55.5998C28.2773 55.1091 27.264 54.4478 26.432 53.6158C25.6213 52.7838 25.0027 51.8344 24.576 50.7678C24.1493 49.6798 23.936 48.5384 23.936 47.3438V46.6078C23.936 45.3918 24.1493 44.2398 24.576 43.1518C25.024 42.0424 25.664 41.0718 26.496 40.2398C27.3493 39.4078 28.3733 38.7571 29.568 38.2878C30.7627 37.7971 32.096 37.5518 33.568 37.5518C35.0827 37.5518 36.4267 37.7971 37.6 38.2878C38.7947 38.7571 39.808 39.4078 40.64 40.2398C41.472 41.0718 42.112 42.0424 42.56 43.1518C43.008 44.2398 43.232 45.3918 43.232 46.6078V47.3438C43.232 48.5384 43.0187 49.6798 42.592 50.7678C42.1653 51.8344 41.536 52.7838 40.704 53.6158C39.8933 54.4478 38.8907 55.1091 37.696 55.5998C36.5013 56.0691 35.1253 56.3038 33.568 56.3038ZM33.568 51.9838C34.5707 51.9838 35.4027 51.7704 36.064 51.3438C36.7253 50.9171 37.2267 50.3198 37.568 49.5518C37.9307 48.7838 38.112 47.9304 38.112 46.9918C38.112 45.9891 37.9307 45.1144 37.568 44.3678C37.2053 43.5998 36.6827 42.9918 36 42.5438C35.3387 42.0958 34.528 41.8718 33.568 41.8718C32.6293 41.8718 31.8187 42.0958 31.136 42.5438C30.4533 42.9918 29.9307 43.5998 29.568 44.3678C29.2267 45.1144 29.056 45.9891 29.056 46.9918C29.056 47.9304 29.2267 48.7838 29.568 49.5518C29.9093 50.3198 30.4213 50.9171 31.104 51.3438C31.7867 51.7704 32.608 51.9838 33.568 51.9838Z" fill="url(#paint4_linear_239_5)"/>
<path d="M4.92001 55.8238V50.9278H9.27201C10.36 50.9278 11.3413 50.7678 12.216 50.4478C13.0907 50.1065 13.8373 49.6371 14.456 49.0398C15.0747 48.4211 15.544 47.6851 15.864 46.8318C16.184 45.9571 16.344 44.9971 16.344 43.9518C16.344 42.8638 16.184 41.8931 15.864 41.0398C15.544 40.1865 15.0747 39.4611 14.456 38.8638C13.8373 38.2665 13.0907 37.8185 12.216 37.5198C11.3413 37.1998 10.36 37.0398 9.27201 37.0398H4.92001V32.1438H8.98401C11.096 32.1438 12.9413 32.4531 14.52 33.0718C16.0987 33.6905 17.4213 34.5331 18.488 35.5998C19.5547 36.6665 20.344 37.8931 20.856 39.2798C21.3893 40.6451 21.656 42.0851 21.656 43.5998V44.3038C21.656 45.7118 21.3893 47.1091 20.856 48.4958C20.344 49.8611 19.5547 51.0985 18.488 52.2078C17.4213 53.2958 16.0987 54.1705 14.52 54.8318C12.9413 55.4931 11.096 55.8238 8.98401 55.8238H4.92001ZM0.312012 55.8238V32.1438H5.56001V55.8238H0.312012Z" fill="url(#paint5_linear_239_5)"/>
<defs>
<filter id="filter0_di_239_5" x="100.688" y="0.696045" width="62" height="62" filterUnits="userSpaceOnUse" color-interpolation-filters="sRGB">
<feFlood flood-opacity="0" result="BackgroundImageFix"/>
<feColorMatrix in="SourceAlpha" type="matrix" values="0 0 0 0 0 0 0 0 0 0 0 0 0 0 0 0 0 0 127 0" result="hardAlpha"/>
<feOffset dy="4"/>
<feGaussianBlur stdDeviation="9.5"/>
<feComposite in2="hardAlpha" operator="out"/>
<feColorMatrix type="matrix" values="0 0 0 0 0.0862745 0 0 0 0 0.470588 0 0 0 0 0.94902 0 0 0 0.2 0"/>
<feBlend mode="normal" in2="BackgroundImageFix" result="effect1_dropShadow_239_5"/>
<feBlend mode="normal" in="SourceGraphic" in2="effect1_dropShadow_239_5" result="shape"/>
<feColorMatrix in="SourceAlpha" type="matrix" values="0 0 0 0 0 0 0 0 0 0 0 0 0 0 0 0 0 0 127 0" result="hardAlpha"/>
<feOffset dy="4"/>
<feGaussianBlur stdDeviation="2"/>
<feComposite in2="hardAlpha" operator="arithmetic" k2="-1" k3="1"/>
<feColorMatrix type="matrix" values="0 0 0 0 0 0 0 0 0 0 0 0 0 0 0 0 0 0 0.12 0"/>
<feBlend mode="normal" in2="shape" result="effect2_innerShadow_239_5"/>
</filter>
<linearGradient id="paint0_linear_239_5" x1="101.12" y1="30.9711" x2="125.88" y2="32.5935" gradientUnits="userSpaceOnUse">
<stop stop-color="#3A8EF6"/>
<stop offset="1" stop-color="#6F3AFA"/>
</linearGradient>
<linearGradient id="paint1_linear_239_5" x1="77.5902" y1="30.198" x2="121.416" y2="35.05" gradientUnits="userSpaceOnUse">
<stop stop-color="#3A8EF6"/>
<stop offset="1" stop-color="#6F3AFA"/>
</linearGradient>
<linearGradient id="paint2_linear_239_5" x1="63.2793" y1="24.6019" x2="92.0156" y2="26.3258" gradientUnits="userSpaceOnUse">
<stop stop-color="#3A8EF6"/>
<stop offset="1" stop-color="#6F3AFA"/>
</linearGradient>
<linearGradient id="paint3_linear_239_5" x1="44.3646" y1="30.198" x2="83.9204" y2="34.1415" gradientUnits="userSpaceOnUse">
<stop stop-color="#3A8EF6"/>
<stop offset="1" stop-color="#6F3AFA"/>
</linearGradient>
<linearGradient id="paint4_linear_239_5" x1="22.4339" y1="30.198" x2="66.2599" y2="35.05" gradientUnits="userSpaceOnUse">
<stop stop-color="#3A8EF6"/>
<stop offset="1" stop-color="#6F3AFA"/>
</linearGradient>
<linearGradient id="paint5_linear_239_5" x1="-1.3495" y1="22.8575" x2="47.2649" y2="27.5719" gradientUnits="userSpaceOnUse">
<stop stop-color="#3A8EF6"/>
<stop offset="1" stop-color="#6F3AFA"/>
</linearGradient>
</defs>
</svg>
