<svg width="21" height="20" viewBox="0 0 21 20" fill="none" xmlns="http://www.w3.org/2000/svg">
<path d="M19.688 9.50003C19.6915 10.8199 19.3831 12.1219 18.788 13.3C18.0825 14.7118 16.9978 15.8992 15.6555 16.7293C14.3132 17.5594 12.7663 17.9994 11.188 18C9.86815 18.0035 8.56613 17.6951 7.38802 17.1L1.68802 19L3.58802 13.3C2.99295 12.1219 2.68458 10.8199 2.68802 9.50003C2.68863 7.92179 3.12863 6.37488 3.95874 5.03258C4.78885 3.69028 5.97627 2.6056 7.38802 1.90003C8.56613 1.30496 9.86815 0.996587 11.188 1.00003H11.688C13.7724 1.11502 15.7411 1.99479 17.2172 3.47089C18.6933 4.94699 19.573 6.91568 19.688 9.00003V9.50003Z" stroke="white" stroke-width="2" stroke-linecap="round" stroke-linejoin="round"/>
</svg>
